<svg xmlns="http://www.w3.org/2000/svg" xmlns:xlink="http://www.w3.org/1999/xlink" version="1.1" id="Layer_1" x="0px" y="0px" width="100px" height="100px" viewBox="0 0 100 100" enable-background="new 0 0 100 100" xml:space="preserve">
<g>
	<g id="XMLID_48_">
		<g>
			<path d="M36.603,78.678c-0.367,0.643-1.41,0.745-2.33,0.216l-5.761-3.284c-0.916-0.525-1.363-1.471-0.995-2.113l24.499-38.904     c3.524-5.706-8.792-5.203-11.815-3.523c2.286-4.107,9.573-5.462,14.299-5.805l1.375,0.09c2.672,1.333,6.501,3.333,9.026,5.009     c1.854,2.918,3.81,4.455,6.579,4.447c3.615,2.774-2.03,10.341-5.582,6.837c0.02-1.732-4.994-6.211-8.508-2.521L36.603,78.678z"/>
		</g>
	</g>
</g>
</svg>