<?xml version="1.0" encoding="UTF-8" standalone="no"?>
<svg
   xmlns:dc="http://purl.org/dc/elements/1.1/"
   xmlns:cc="http://creativecommons.org/ns#"
   xmlns:rdf="http://www.w3.org/1999/02/22-rdf-syntax-ns#"
   xmlns:svg="http://www.w3.org/2000/svg"
   xmlns="http://www.w3.org/2000/svg"
   xmlns:sodipodi="http://sodipodi.sourceforge.net/DTD/sodipodi-0.dtd"
   xmlns:inkscape="http://www.inkscape.org/namespaces/inkscape"
   version="1.1"
   id="Layer_1"
   x="0px"
   y="0px"
   width="100px"
   height="100px"
   viewBox="0 0 100 100"
   enable-background="new 0 0 100 100"
   xml:space="preserve"
   inkscape:version="0.48.2 r9819"
   sodipodi:docname="noun_project_5710.svg"
   inkscape:export-filename="/Users/tjacobs2/Downloads/start_flag.png"
   inkscape:export-xdpi="89.484573"
   inkscape:export-ydpi="89.484573"><metadata
   id="metadata35"><rdf:RDF><cc:Work
       rdf:about=""><dc:format>image/svg+xml</dc:format><dc:type
         rdf:resource="http://purl.org/dc/dcmitype/StillImage" /><dc:title></dc:title></cc:Work></rdf:RDF></metadata><defs
   id="defs33" /><sodipodi:namedview
   pagecolor="#ffffff"
   bordercolor="#666666"
   borderopacity="1"
   objecttolerance="10"
   gridtolerance="10"
   guidetolerance="10"
   inkscape:pageopacity="0"
   inkscape:pageshadow="2"
   inkscape:window-width="923"
   inkscape:window-height="708"
   id="namedview31"
   showgrid="false"
   inkscape:zoom="2.36"
   inkscape:cx="50"
   inkscape:cy="50"
   inkscape:window-x="0"
   inkscape:window-y="0"
   inkscape:window-maximized="0"
   inkscape:current-layer="Layer_1" />
<path
   d="M5.468,97.271c0,1.506-1.223,2.733-2.734,2.733l0,0C1.223,100.004,0,98.776,0,97.271V2.162c0-1.51,1.223-2.734,2.734-2.734  l0,0c1.511,0,2.734,1.224,2.734,2.734V97.271z"
   id="path3" />
<rect
   x="5.468"
   y="3.925"
   width="11.717"
   height="11.716"
   id="rect5" />
<rect
   x="17.156"
   y="15.612"
   width="11.714"
   height="11.717"
   id="rect7" />
<rect
   x="5.468"
   y="27.297"
   width="11.717"
   height="11.717"
   id="rect9" />
<rect
   x="17.156"
   y="38.986"
   width="11.714"
   height="11.716"
   id="rect11" />
<rect
   x="28.87"
   y="3.925"
   width="11.714"
   height="11.716"
   id="rect13" />
<rect
   x="40.563"
   y="15.612"
   width="11.709"
   height="11.717"
   id="rect15" />
<rect
   x="28.87"
   y="27.297"
   width="11.714"
   height="11.717"
   id="rect17" />
<rect
   x="40.563"
   y="38.986"
   width="11.709"
   height="11.716"
   id="rect19" />
<rect
   x="52.272"
   y="3.925"
   width="11.721"
   height="11.716"
   id="rect21" />
<rect
   x="63.966"
   y="15.612"
   width="11.713"
   height="11.717"
   id="rect23" />
<rect
   x="52.272"
   y="27.297"
   width="11.721"
   height="11.717"
   id="rect25" />
<rect
   x="63.966"
   y="38.986"
   width="11.713"
   height="11.716"
   id="rect27" />
<path
   d="M78.327,53.34H1.408V1.529h76.919V53.34z M4.06,50.691h71.619V4.18H4.06V50.691z"
   id="path29" />
</svg>